<svg xmlns="http://www.w3.org/2000/svg" width="24" height="24" viewBox="0 0 24 24" fill="none" stroke="#B965FF" stroke-width="2" stroke-linecap="round" stroke-linejoin="round">
  <circle cx="12" cy="12" r="2" />
  <path d="M21 12c0-1.2-.8-2.3-1.9-2.6C18.4 6.5 16.4 4.8 14 4.2c-.3-1.2-1.4-2-2.6-2-1.2 0-2.3.8-2.6 1.9C6.5 4.6 4.8 6.6 4.2 9c-1.2.3-2 1.4-2 2.6 0 1.2.8 2.3 1.9 2.6.6 2.9 2.6 4.6 5 5.2.3 1.2 1.4 2 2.6 2 1.2 0 2.3-.8 2.6-1.9 2.6-.6 4.3-2.6 4.9-5 1.1-.4 1.8-1.5 1.8-2.5Z" />
  <path d="M12 6.8c-3 .1-6 .8-6 2.6 0 1.9 3 2.5 6 2.6m0 5.2c3-.1 6-.8 6-2.6 0-1.9-3-2.5-6-2.6" />
</svg> 