<svg xmlns="http://www.w3.org/2000/svg" width="24" height="24" viewBox="0 0 24 24" fill="none" stroke="#B965FF" stroke-width="2" stroke-linecap="round" stroke-linejoin="round">
  <path d="M12 6C7.03 6 4 8.15 4 12c0-5.05 2.83-6 4-6-2.15.28-4 2.31-4 5.19a7.17 7.17 0 0 0 1.33 4.22C7.35 18.6 10.12 20 13.95 20c4.07 0 6.05-2.41 6.05-5.09 0-2.22-1.1-3.55-3.86-3.55-2.08 0-3.14.92-3.14 2.14 0-.98.76-1.5 1.86-1.5 1.7 0 2.38 1 2.38 2.29 0 1.82-1.92 3.57-6.24 3.57-5.88 0-6.1-4.47-6.1-5.23 0-2.6 2.14-4.3 7.1-6.63Z" />
</svg> 