<svg xmlns="http://www.w3.org/2000/svg" viewBox="0 0 24 24" fill="none" stroke="currentColor" stroke-width="2" stroke-linecap="round" stroke-linejoin="round" class="feather feather-wordpress">
  <path d="M12 2C6.5 2 2 6.5 2 12s4.5 10 10 10 10-4.5 10-10S17.5 2 12 2zm-1 17.93c-3.95-.49-7-3.85-7-7.93 0-.62.08-1.21.21-1.79L8.99 15v1c0 1.1.9 2 2 2v1.93zm6.9-2.54c-.26.86-.86 1.94-.86 1.94-.43.81-1.25 2.17-1.25 2.17l-2.14-6 1.25-.41.75 2.25.75-2.25 1.5-.5V17.39zM12 4c4.42 0 8 3.58 8 8 0 3.54-2.29 6.53-5.47 7.58l.74-4.58L17.74 10c.48-.15.48-.94 0-1.09l-3-1c-.17-.06-.37-.1-.5.09l-1.5 4.5-1.5-4.5c-.13-.19-.33-.15-.5-.09l-3 1c-.48.16-.48.94 0 1.09L10.21 15l.74 4.58C7.77 18.53 5.48 15.54 5.48 12c0-4.42 3.58-8 8-8z"/>
</svg> 